<svg id="b1a04460-a537-4470-90e5-b006ae8c3de6" data-name="Layer 1" xmlns="http://www.w3.org/2000/svg" width="83.14" height="76.99" viewBox="0 0 83.14 76.99">
  <defs>
    <style>
      .f3a68eb5-7c8d-4303-87ef-3149fcb5af97 {
        fill: #ed1c24;
      }
    </style>
  </defs>
  <title>icon_desk-and-monitor</title>
  <g id="b5b32663-2317-49ec-8fff-e5238d8ede5c" data-name="Group 8">
    <g id="a474d0c2-cfa9-4279-96fd-e24776fd8d77" data-name="Group 1">
      <path id="a5a1206d-f4b8-4d6a-8130-e5c9410c3502" data-name="Path 1" class="f3a68eb5-7c8d-4303-87ef-3149fcb5af97" d="M80.68,32.77h-30V31.13H61.12a2.45,2.45,0,0,0,2.44-2.45l.1-26.21A2.45,2.45,0,0,0,61.23,0H22a2.45,2.45,0,0,0-2.45,2.45h0V28.67A2.46,2.46,0,0,0,22,31.13h10.8v1.63H2.46a2.46,2.46,0,0,0,0,4.92h.81V74.54a2.45,2.45,0,1,0,4.89,0V37.68H45.64V68a2.45,2.45,0,0,0,2.44,2.46H75v4.1a2.45,2.45,0,0,0,4.89,0V37.68h.82a2.46,2.46,0,1,0,0-4.91Zm-34.92,0H37.7V31.13h8.06ZM35.25,26.21H24.45V4.91H58.77l-.08,21.3ZM75,65.53H50.53V37.68H75Z"/>
      <path id="a9e9946f-7dfd-4172-a936-19711935fd9f" data-name="Path 2" class="f3a68eb5-7c8d-4303-87ef-3149fcb5af97" d="M57.81,50.79h9.83a2.46,2.46,0,0,0,0-4.92H57.81a2.46,2.46,0,0,0,0,4.92Z"/>
    </g>
  </g>
</svg>
